<svg width="149" height="142" viewBox="0 0 149 142" fill="none" xmlns="http://www.w3.org/2000/svg">
<path d="M90 65.46C92.5766 64.0833 94.7427 62.6151 96.4971 61.0557C99.382 58.5604 101.41 55.1292 102.579 50.7627C103.827 46.396 104.45 40.4699 104.45 32.9844V0H140.593V28.8906C140.593 40.1191 139.15 49.6321 136.265 57.4297C133.457 65.1494 128.896 71.583 122.58 76.7295C118.266 80.2447 112.951 83.395 106.636 86.1826L148.195 141.528H106.205L56.6914 71.6807C53.8165 73.1682 51.4111 74.8502 49.4766 76.7295C46.8254 79.3806 44.9148 82.7334 43.7451 86.7881C42.6534 90.8429 42.1074 95.9119 42.1074 101.994V141.528H5.96484V107.258C5.96484 96.575 7.56369 87.4123 10.7607 79.7705C14.0358 72.0508 19.0656 65.5005 25.8496 60.1201C29.9359 56.8697 34.7271 53.909 40.2236 51.2393L0 0H41.9902L90 65.46Z" fill="black"/>
</svg>
