<svg width="205" height="170" viewBox="0 0 205 170" fill="none" xmlns="http://www.w3.org/2000/svg">
<path d="M183.382 42.8906C183.382 55.2026 181.813 66.4386 178.21 76.2129L178.211 76.2139C174.548 86.2875 168.506 94.8258 160.213 101.583C158.939 102.621 157.611 103.618 156.235 104.581L205.005 169.528H127.758L85.1904 109.48C85.0064 111.32 84.8965 113.48 84.8965 115.994V169.528H20.7539V121.258C20.7539 109.233 22.547 98.1379 26.6348 88.3672L26.6621 88.3027C30.75 78.667 36.9787 70.4644 45.1426 63.792L45.9395 63.1514C46.6819 62.5611 47.4399 61.9826 48.2119 61.4141L0 0H77.873L118.819 55.8301C119.046 53.7708 119.199 51.2628 119.232 48.251L119.239 46.9844V0H183.382V42.8906Z" fill="black"/>
</svg>
